<svg width="29" height="27" viewBox="0 0 29 27" fill="none" xmlns="http://www.w3.org/2000/svg">
<path d="M8.49074 13.5318C11.1721 13.5318 13.3457 11.3908 13.3457 8.74977C13.3457 6.10875 11.1721 3.96777 8.49074 3.96777C5.8094 3.96777 3.63574 6.10875 3.63574 8.74977C3.63574 11.3908 5.8094 13.5318 8.49074 13.5318Z" fill="#007AFF"/>
<path d="M8.49098 15.769C10.7427 15.769 12.9021 16.6635 14.4943 18.2557C16.0865 19.8479 16.981 22.0074 16.981 24.259V26.451H0.000976562V24.259C0.000976562 22.0074 0.895456 19.8479 2.48764 18.2557C4.07982 16.6635 6.23929 15.769 8.49098 15.769V15.769Z" fill="#007AFF"/>
<path d="M20.1631 9.564C22.8444 9.564 25.0181 7.42303 25.0181 4.782C25.0181 2.14097 22.8444 0 20.1631 0C17.4818 0 15.3081 2.14097 15.3081 4.782C15.3081 7.42303 17.4818 9.564 20.1631 9.564Z" fill="#007AFF"/>
<path d="M28.6571 20.1588V22.4798H18.7851C18.5202 20.9184 17.8997 19.4388 16.9714 18.1556C16.0432 16.8725 14.8322 15.82 13.4321 15.0798C14.5145 13.6925 16.0001 12.6747 17.6846 12.1664C19.3691 11.658 21.1698 11.684 22.8389 12.2408C24.508 12.7976 25.9636 13.8579 27.0055 15.2758C28.0474 16.6937 28.6244 18.3995 28.6571 20.1588Z" fill="#007AFF"/>
</svg>
