<svg width="27" height="27" viewBox="0 0 27 27" fill="none" xmlns="http://www.w3.org/2000/svg">
<path d="M26.452 13.226C26.4522 10.6101 25.6767 8.05284 24.2234 5.87768C22.7702 3.70252 20.7046 2.00716 18.2878 1.00599C15.8711 0.00482142 13.2117 -0.257182 10.646 0.253114C8.0803 0.763411 5.72356 2.02309 3.87381 3.87284C2.02406 5.72258 0.764387 8.07932 0.254091 10.645C-0.256205 13.2107 0.00579798 15.8701 1.00697 18.2869C2.00814 20.7036 3.7035 22.7692 5.87866 24.2225C8.05382 25.6757 10.6111 26.4512 13.227 26.451H23.689V21.296C25.481 18.9877 26.4532 16.1483 26.452 13.226ZM19.221 11.342C19.5936 11.342 19.9579 11.4525 20.2677 11.6595C20.5775 11.8666 20.819 12.1608 20.9616 12.5051C21.1042 12.8493 21.1415 13.2281 21.0688 13.5936C20.9961 13.959 20.8167 14.2947 20.5532 14.5582C20.2897 14.8217 19.954 15.0011 19.5886 15.0738C19.2231 15.1465 18.8443 15.1092 18.5 14.9666C18.1558 14.824 17.8615 14.5825 17.6545 14.2727C17.4475 13.9629 17.337 13.5986 17.337 13.226C17.337 12.7264 17.5355 12.2472 17.8888 11.8938C18.2421 11.5405 18.7213 11.342 19.221 11.342ZM7.23601 15.109C6.86339 15.1088 6.49919 14.9981 6.18948 14.791C5.87977 14.5838 5.63845 14.2894 5.49603 13.9451C5.35362 13.6007 5.31651 13.2219 5.3894 12.8565C5.46229 12.4911 5.6419 12.1555 5.90552 11.8921C6.16915 11.6288 6.50494 11.4495 6.87044 11.377C7.23594 11.3045 7.61473 11.342 7.95891 11.4848C8.30309 11.6276 8.5972 11.8692 8.80405 12.1792C9.0109 12.4891 9.1212 12.8534 9.12101 13.226C9.12087 13.4734 9.07201 13.7184 8.97721 13.9469C8.88241 14.1755 8.74353 14.3831 8.56849 14.5579C8.39345 14.7328 8.18569 14.8714 7.95706 14.966C7.72843 15.0606 7.48342 15.1092 7.23601 15.109ZM11.343 13.225C11.343 12.8524 11.4535 12.4882 11.6605 12.1783C11.8675 11.8685 12.1618 11.627 12.506 11.4844C12.8503 11.3418 13.2291 11.3045 13.5946 11.3772C13.96 11.4499 14.2957 11.6294 14.5592 11.8928C14.8227 12.1563 15.0021 12.492 15.0748 12.8575C15.1475 13.2229 15.1102 13.6017 14.9676 13.946C14.825 14.2903 14.5835 14.5845 14.2737 14.7915C13.9639 14.9985 13.5996 15.109 13.227 15.109C12.7275 15.109 12.2485 14.9107 11.8952 14.5576C11.5419 14.2045 11.3433 13.7245 11.343 13.225Z" fill="#007AFF" fill-opacity="0.3"/>
</svg>
