<svg width="29" height="27" viewBox="0 0 29 27" fill="none" xmlns="http://www.w3.org/2000/svg">
<path d="M8.49074 13.532C11.1721 13.532 13.3457 11.391 13.3457 8.75002C13.3457 6.10899 11.1721 3.96802 8.49074 3.96802C5.8094 3.96802 3.63574 6.10899 3.63574 8.75002C3.63574 11.391 5.8094 13.532 8.49074 13.532Z" fill="#007AFF" fill-opacity="0.3"/>
<path d="M8.49098 15.769C10.7427 15.769 12.9021 16.6635 14.4943 18.2557C16.0865 19.8479 16.981 22.0074 16.981 24.259V26.451H0.000976562V24.259C0.000976562 22.0074 0.895456 19.8479 2.48764 18.2557C4.07982 16.6635 6.23929 15.769 8.49098 15.769V15.769Z" fill="#007AFF" fill-opacity="0.3"/>
<path d="M20.1631 9.564C22.8444 9.564 25.0181 7.42303 25.0181 4.782C25.0181 2.14097 22.8444 0 20.1631 0C17.4818 0 15.3081 2.14097 15.3081 4.782C15.3081 7.42303 17.4818 9.564 20.1631 9.564Z" fill="#007AFF" fill-opacity="0.3"/>
<path d="M28.6571 20.159V22.48H18.7851C18.5202 20.9186 17.8997 19.4391 16.9714 18.1559C16.0432 16.8727 14.8322 15.8203 13.4321 15.08C14.5145 13.6928 16.0001 12.675 17.6846 12.1666C19.3691 11.6582 21.1698 11.6842 22.8389 12.241C24.508 12.7978 25.9636 13.8581 27.0055 15.276C28.0474 16.6939 28.6244 18.3998 28.6571 20.159Z" fill="#007AFF" fill-opacity="0.3"/>
</svg>
