<svg width="27" height="27" viewBox="0 0 27 27" fill="none" xmlns="http://www.w3.org/2000/svg">
<path d="M26.452 15.057V11.394C26.4521 11.2667 26.4087 11.1432 26.3291 11.044C26.2494 10.9447 26.1383 10.8755 26.014 10.848L23.588 10.31C23.4948 10.2883 23.4089 10.2427 23.3388 10.1776C23.2686 10.1125 23.2167 10.0303 23.188 9.939C23.0265 9.44665 22.8287 8.96699 22.596 8.504C22.5519 8.41888 22.5309 8.32371 22.5349 8.22794C22.5389 8.13217 22.5679 8.03911 22.619 7.958L23.953 5.863C24.0226 5.75525 24.0529 5.62681 24.0389 5.49932C24.0249 5.37183 23.9674 5.25306 23.876 5.163L21.286 2.573C21.196 2.48167 21.0772 2.42415 20.9497 2.41013C20.8222 2.3961 20.6938 2.42643 20.586 2.496L18.491 3.83C18.41 3.88118 18.3169 3.91023 18.2211 3.91426C18.1253 3.9183 18.0301 3.89718 17.945 3.853C17.482 3.62036 17.0024 3.42248 16.51 3.261C16.4187 3.23236 16.3365 3.18039 16.2714 3.11024C16.2064 3.04009 16.1607 2.95418 16.139 2.861L15.601 0.438C15.5736 0.314242 15.5049 0.203485 15.4062 0.123898C15.3076 0.044312 15.1848 0.00062337 15.058 5.72053e-08H11.394C11.2668 -5.75002e-05 11.1433 0.0433203 11.044 0.122962C10.9447 0.202604 10.8756 0.313741 10.848 0.438L10.31 2.864C10.2882 2.95714 10.2426 3.043 10.1775 3.11314C10.1125 3.18328 10.0303 3.23527 9.93903 3.264C9.44668 3.42548 8.96702 3.62336 8.50403 3.856C8.41893 3.90018 8.32374 3.9213 8.22795 3.91726C8.13216 3.91323 8.0391 3.88418 7.95802 3.833L5.86502 2.5C5.75727 2.43043 5.62884 2.4001 5.50134 2.41413C5.37385 2.42815 5.25508 2.48567 5.16502 2.577L2.57503 5.167C2.4837 5.25706 2.42618 5.37582 2.41216 5.50332C2.39813 5.63081 2.42844 5.75925 2.49802 5.867L3.83202 7.962C3.8831 8.04311 3.9121 8.13617 3.91614 8.23194C3.92017 8.32771 3.89911 8.42288 3.85503 8.508C3.62238 8.97099 3.42449 9.45065 3.26302 9.943C3.23437 10.0343 3.18241 10.1165 3.11226 10.1816C3.04211 10.2467 2.95621 10.2923 2.86302 10.314L0.437027 10.852C0.312768 10.8795 0.201621 10.9487 0.121979 11.048C0.0423369 11.1472 -0.00103406 11.2707 -0.000976505 11.398V15.062C-0.00103406 15.1893 0.0423369 15.3128 0.121979 15.412C0.201621 15.5113 0.312768 15.5805 0.437027 15.608L2.86302 16.146C2.95621 16.1677 3.04211 16.2133 3.11226 16.2784C3.18241 16.3435 3.23437 16.4257 3.26302 16.517C3.42449 17.0094 3.62238 17.489 3.85503 17.952C3.89911 18.0371 3.92017 18.1323 3.91614 18.2281C3.9121 18.3238 3.8831 18.4169 3.83202 18.498L2.50102 20.587C2.43145 20.6948 2.40112 20.8232 2.41515 20.9507C2.42917 21.0782 2.48669 21.1969 2.57802 21.287L5.16803 23.877C5.25809 23.9683 5.37685 24.0258 5.50435 24.0399C5.63184 24.0539 5.76027 24.0236 5.86803 23.954L7.96303 22.62C8.0441 22.5688 8.13716 22.5398 8.23296 22.5357C8.32875 22.5317 8.42392 22.5528 8.50902 22.597C8.97201 22.8296 9.45167 23.0275 9.94402 23.189C10.0353 23.2177 10.1175 23.2697 10.1825 23.3399C10.2476 23.41 10.2932 23.4959 10.315 23.589L10.853 26.015C10.8806 26.1393 10.9497 26.2504 11.049 26.33C11.1483 26.4097 11.2717 26.4531 11.399 26.453H15.063C15.1903 26.4531 15.3138 26.4097 15.4131 26.33C15.5124 26.2504 15.5815 26.1393 15.609 26.015L16.147 23.589C16.1687 23.4958 16.2144 23.4099 16.2794 23.3398C16.3445 23.2696 16.4267 23.2176 16.518 23.189C17.0104 23.0275 17.49 22.8296 17.953 22.597C18.0381 22.5528 18.1333 22.5317 18.2291 22.5357C18.3249 22.5398 18.4179 22.5688 18.499 22.62L20.594 23.954C20.7018 24.0236 20.8302 24.0539 20.9577 24.0399C21.0852 24.0258 21.204 23.9683 21.294 23.877L23.884 21.287C23.9753 21.1969 24.0329 21.0782 24.0469 20.9507C24.0609 20.8232 24.0306 20.6948 23.961 20.587L22.627 18.492C22.5759 18.4109 22.5469 18.3178 22.5429 18.2221C22.5389 18.1263 22.5599 18.0311 22.604 17.946C22.8367 17.483 23.0345 17.0033 23.196 16.511C23.2247 16.4197 23.2766 16.3375 23.3468 16.2724C23.4169 16.2073 23.5028 16.1617 23.596 16.14L26.022 15.602C26.1446 15.5729 26.2538 15.5033 26.3319 15.4043C26.4099 15.3054 26.4523 15.183 26.452 15.057ZM13.227 17.1C12.46 17.1 11.7103 16.8726 11.0725 16.4464C10.4348 16.0203 9.93773 15.4147 9.64421 14.706C9.35069 13.9974 9.2739 13.2177 9.42354 12.4654C9.57317 11.7132 9.94252 11.0222 10.4849 10.4798C11.0272 9.93749 11.7182 9.56815 12.4705 9.41851C13.2227 9.26888 14.0025 9.34568 14.7111 9.6392C15.4197 9.93271 16.0253 10.4298 16.4515 11.0675C16.8776 11.7052 17.105 12.455 17.105 13.222C17.1048 14.2504 16.6961 15.2367 15.9689 15.9639C15.2417 16.6911 14.2554 17.0997 13.227 17.1Z" fill="#007AFF" fill-opacity="0.3"/>
</svg>
